<svg xmlns="http://www.w3.org/2000/svg" xmlns:xlink="http://www.w3.org/1999/xlink" width="1200" zoomAndPan="magnify" viewBox="0 0 900 599.999999" height="800" preserveAspectRatio="xMidYMid meet" version="1.0"><defs><clipPath id="1ea91aae76"><path d="M 25.125 87.898438 L 804.976562 87.898438 L 804.976562 501.820312 L 25.125 501.820312 Z M 25.125 87.898438 " clip-rule="nonzero"/></clipPath><clipPath id="396e1867d7"><path d="M 30.300781 87.898438 C 105.898438 99.601562 107.851562 99.976562 111.675781 101.023438 C 116.023438 102.148438 121.949219 104.023438 125.175781 105.449219 C 127.199219 106.351562 128.324219 107.101562 129.75 108.148438 C 131.324219 109.273438 132 110.476562 134.101562 112.199219 C 138.449219 115.949219 149.101562 123.226562 155.699219 128.398438 C 161.324219 132.898438 167.324219 137.625 171.226562 141.375 C 173.851562 143.925781 175.050781 145.351562 177.300781 148.351562 C 180.75 153.074219 185.476562 161.101562 189.226562 167.773438 C 193.125 174.675781 197.925781 183.976562 200.398438 189.074219 C 201.75 191.851562 202.050781 192.449219 203.25 195.523438 C 205.949219 202.648438 211.648438 219.824219 215.101562 231.75 C 218.398438 243.148438 221.925781 256.648438 223.726562 265.425781 C 224.851562 271.050781 225.226562 273.898438 225.824219 279.300781 C 226.800781 286.800781 226.726562 295.351562 228.226562 306.148438 C 230.550781 322.800781 236.773438 353.476562 240.226562 368.925781 C 242.25 378 243.148438 384 245.625 390.523438 C 247.875 396.449219 250.273438 401.851562 253.875 406.648438 C 257.699219 411.675781 264.375 417.226562 268.273438 420 C 270.675781 421.726562 272.476562 422.699219 274.5 423.375 C 276.375 423.976562 277.425781 423.898438 280.050781 424.050781 C 286.800781 424.5 303.976562 425.175781 315.898438 424.273438 C 327.976562 423.300781 342.449219 420.523438 351.898438 418.425781 C 358.199219 417.074219 362.625 415.949219 367.351562 414.300781 C 371.550781 412.800781 374.101562 411.675781 378.824219 409.199219 C 387.148438 404.925781 402.226562 395.625 412.050781 389.550781 C 420 384.675781 425.773438 381.375 433.351562 375.976562 C 442.726562 369.375 455.25 358.351562 463.5 352.425781 C 468.976562 348.523438 472.648438 346.125 477.523438 343.273438 C 482.550781 340.351562 486.449219 338.101562 493.125 335.101562 C 504.300781 330.148438 526.199219 322.273438 539.324219 318.074219 C 548.851562 315.074219 556.726562 312.976562 564.300781 311.476562 C 570.523438 310.273438 576.375 309.675781 581.550781 309.226562 C 585.675781 308.925781 589.5 308.851562 592.800781 309 C 595.351562 309.074219 597 309.375 599.625 309.75 C 603.375 310.351562 608.699219 311.175781 613.273438 312.148438 C 617.925781 313.199219 622.5 314.476562 627.148438 316.050781 C 632.023438 317.625 638.023438 319.648438 641.773438 321.75 C 644.476562 323.25 645.898438 324.601562 648.074219 326.550781 C 650.625 329.023438 653.101562 331.875 655.949219 335.625 C 659.925781 340.949219 665.550781 348 669.300781 355.875 C 673.726562 365.25 676.949219 381.976562 679.425781 388.726562 C 680.550781 391.800781 681 393.148438 682.125 395.398438 C 683.324219 397.800781 684.675781 399.75 686.476562 402.601562 C 689.175781 407.023438 692.476562 412.648438 697.199219 418.949219 C 704.25 428.476562 717.300781 443.699219 725.925781 453.300781 C 732.523438 460.648438 737.851562 466.949219 744.074219 472.273438 C 749.699219 477 755.925781 481.199219 761.476562 483.976562 C 765.976562 486.226562 769.273438 487.050781 774.449219 488.398438 C 781.949219 490.351562 798.449219 491.398438 802.125 493.425781 C 803.25 494.023438 803.550781 494.625 803.925781 495.375 C 804.226562 496.125 804.375 497.175781 804.148438 498 C 803.773438 498.976562 802.574219 500.398438 801.601562 500.851562 C 800.773438 501.300781 799.726562 501.226562 798.976562 501 C 798.148438 500.773438 797.25 500.25 796.800781 499.425781 C 796.199219 498.523438 795.976562 496.648438 796.199219 495.601562 C 796.425781 494.773438 797.175781 494.023438 797.851562 493.574219 C 798.523438 493.125 799.574219 492.75 800.398438 492.898438 C 801.449219 493.050781 803.101562 493.949219 803.699219 495 C 804.226562 495.976562 804.226562 497.851562 803.851562 498.824219 C 803.476562 499.648438 802.726562 500.324219 801.976562 500.699219 C 801.226562 501.074219 800.699219 501.074219 799.351562 501.074219 C 794.699219 501 776.101562 497.925781 768.449219 495.75 C 763.800781 494.398438 760.648438 492.75 757.5 491.175781 C 754.949219 489.976562 753.375 489 750.824219 487.351562 C 747.226562 485.023438 742.574219 481.800781 738.300781 478.050781 C 733.050781 473.550781 726.523438 466.648438 722.175781 461.625 C 718.875 457.800781 717.300781 454.949219 714 450.976562 C 709.5 445.5 701.398438 437.023438 697.050781 431.925781 C 694.273438 428.625 692.625 426.601562 690.300781 423.523438 C 687.601562 419.851562 684.523438 414.824219 682.125 411.148438 C 680.175781 408.074219 678.601562 405.976562 676.800781 402.75 C 674.625 398.625 672.226562 393.601562 670.351562 388.199219 C 668.175781 382.050781 666.898438 373.199219 665.023438 367.648438 C 663.675781 363.75 662.023438 360.75 660.675781 357.898438 C 659.625 355.574219 659.101562 354.074219 657.601562 351.75 C 655.351562 348 650.925781 342.148438 647.625 338.25 C 644.773438 334.949219 642.523438 331.875 639 329.550781 C 635.175781 327 629.773438 325.574219 625.199219 324 C 620.699219 322.5 616.199219 321.300781 611.773438 320.25 C 607.351562 319.273438 603.300781 318.449219 598.648438 317.925781 C 593.476562 317.398438 587.625 317.25 582.226562 317.476562 C 576.824219 317.773438 572.101562 318.375 566.324219 319.5 C 559.050781 320.851562 551.476562 322.875 542.25 325.800781 C 529.5 329.773438 507.976562 337.574219 497.101562 342.375 C 490.648438 345.226562 486.824219 347.398438 482.101562 350.175781 C 477.449219 352.800781 473.851562 355.050781 468.898438 358.648438 C 462.074219 363.523438 453.75 371.398438 445.351562 377.476562 C 436.351562 384.074219 426.523438 390.226562 416.398438 396.601562 C 405.601562 403.273438 391.199219 412.125 382.5 416.625 C 377.25 419.25 374.101562 420.601562 369.449219 422.25 C 364.425781 423.976562 359.925781 425.175781 353.398438 426.601562 C 343.574219 428.625 328.425781 431.550781 315.898438 432.523438 C 303.75 433.425781 287.25 432.898438 279.375 432.226562 C 275.625 431.925781 273.449219 431.550781 271.125 430.875 C 269.476562 430.351562 268.425781 429.824219 266.851562 428.851562 C 264.523438 427.5 261.675781 425.476562 258.824219 423.074219 C 255.148438 419.925781 249.898438 414.898438 246.898438 411 C 244.574219 407.925781 243.226562 405.074219 241.726562 402 C 240.148438 398.925781 238.949219 396.449219 237.675781 392.625 C 235.726562 386.925781 234.148438 379.648438 232.125 370.574219 C 228.898438 356.101562 224.023438 332.175781 221.25 314.25 C 218.699219 297.976562 218.324219 281.625 215.699219 267.449219 C 213.449219 255.226562 210.675781 245.625 207.226562 234 C 203.25 220.875 197.851562 204 193.050781 192.824219 C 189.523438 184.648438 186 178.726562 182.324219 172.273438 C 179.023438 166.425781 175.351562 160.125 172.199219 155.699219 C 169.949219 152.398438 167.699219 149.625 165.824219 147.601562 C 164.476562 146.25 164.101562 146.023438 162.226562 144.523438 C 156.148438 139.5 132.824219 118.800781 122.101562 113.175781 C 116.023438 109.949219 113.023438 109.800781 106.351562 108.148438 C 95.25 105.449219 74.925781 102.523438 61.050781 100.425781 C 49.273438 98.550781 32.851562 97.875 28.425781 95.851562 C 27.148438 95.25 26.625 94.726562 26.25 93.976562 C 25.800781 93.148438 25.648438 91.949219 25.875 91.050781 C 26.023438 90.148438 26.773438 89.175781 27.449219 88.648438 C 28.199219 88.125 30.300781 87.898438 30.300781 87.898438 " clip-rule="nonzero"/></clipPath></defs><g clip-path="url(#1ea91aae76)"><g clip-path="url(#396e1867d7)"><path fill="#0571d3" d="M 22.875 84.898438 L 807.226562 84.898438 L 807.226562 504.070312 L 22.875 504.070312 Z M 22.875 84.898438 " fill-opacity="1" fill-rule="nonzero"/></g></g></svg>